<?xml version="1.0" encoding="utf-8"?>
<!-- Generator: Adobe Illustrator 27.0.0, SVG Export Plug-In . SVG Version: 6.00 Build 0)  -->
<svg version="1.1" id="Layer_1" xmlns="http://www.w3.org/2000/svg" xmlns:xlink="http://www.w3.org/1999/xlink" x="0px" y="0px"
	 viewBox="0 0 1024.5 716.8" style="enable-background:new 0 0 1024.5 716.8;" xml:space="preserve">
<style type="text/css">
	.st0{fill:#66CBE6;}
</style>
<path class="st0" d="M293.1,601.6c-12.1,0-24.3-4.2-34-12.9L0,358.4l273.5-243.1c21.1-18.7,53.5-16.9,72.2,4.2
	c18.8,21.1,16.9,53.5-4.2,72.3L154.1,358.4l173,153.7c21.1,18.8,23,51.2,4.2,72.3C321.2,595.8,307.1,601.6,293.1,601.6L293.1,601.6z
	 M751.1,601.5l273.5-243.1L765.4,128.1c-21.2-18.8-53.5-16.9-72.2,4.2c-18.8,21.1-16.9,53.5,4.2,72.3l173,153.8L683.1,524.9
	c-21.2,18.8-23,51.2-4.2,72.3c10.1,11.4,24.2,17.2,38.2,17.2C729.1,614.4,741.3,610.1,751.1,601.5L751.1,601.5z M511.5,674
	L613.9,59.7c4.7-27.9-14.2-54.3-42.1-58.9c-28-4.7-54.3,14.2-58.9,42.1L410.6,657.2c-4.7,27.9,14.2,54.3,42.1,58.9
	c2.9,0.5,5.6,0.7,8.5,0.7C485.7,716.8,507.4,699,511.5,674L511.5,674z"/>
</svg>
