<?xml version="1.0" encoding="UTF-8"?>
<svg id="Objects" xmlns="http://www.w3.org/2000/svg" xmlns:xlink="http://www.w3.org/1999/xlink" viewBox="0 0 471.2 412.27">
  <defs>
    <style>
      .cls-1 {
        fill: #fff;
      }

      .cls-2 {
        fill: #2c2c30;
      }

      .cls-3 {
        font-size: 43.11px;
        letter-spacing: .05em;
      }

      .cls-3, .cls-4, .cls-5 {
        fill: #42444f;
      }

      .cls-3, .cls-5 {
        font-family: MyriadPro-Regular, 'Myriad Pro';
      }

      .cls-6 {
        stroke: #e6eaf0;
      }

      .cls-6, .cls-7, .cls-8, .cls-9 {
        fill: none;
      }

      .cls-6, .cls-7, .cls-9 {
        stroke-miterlimit: 10;
      }

      .cls-7 {
        stroke-dasharray: 0 0 2.3 1.15;
        stroke-width: 1.27px;
      }

      .cls-7, .cls-9 {
        stroke: #6f7082;
      }

      .cls-10 {
        fill: #e6eaf0;
      }

      .cls-11 {
        fill: #c8d0d9;
      }

      .cls-12 {
        fill: #35363b;
      }

      .cls-5 {
        font-size: 16.35px;
        letter-spacing: .05em;
      }

      .cls-13 {
        fill: #34909d;
      }

      .cls-14 {
        clip-path: url(#clippath);
      }

      .cls-15 {
        fill: #ba0034;
      }

      .cls-16 {
        fill: #1d2c52;
      }

      .cls-17 {
        fill: #d9dde3;
      }

      .cls-18 {
        fill: #f8b85e;
      }

      .cls-19 {
        fill: #3d4968;
      }

      .cls-20 {
        fill: #d9dfe6;
      }

      .cls-21 {
        fill: #6f7082;
      }

      .cls-9 {
        stroke-dasharray: 0 0 1.15 .58;
        stroke-width: .86px;
      }

      .cls-22 {
        fill: #b3bdc7;
      }
    </style>
    <clipPath id="clippath">
      <rect class="cls-8" x="203.51" y="144.41" width="168.55" height="128.62"/>
    </clipPath>
  </defs>
  <circle class="cls-19" cx="206.13" cy="206.13" r="206.13"/>
  <g id="cloud">
    <path class="cls-10" d="M209.92,111.09c-1.73,0-3.38,.31-4.93,.86-1.59-7.93-7.1-14.44-14.41-17.46,.28-2.22,.45-4.48,.45-6.77,0-29.28-23.73-53.01-53.01-53.01-26.5,0-48.45,19.44-52.38,44.84-2.17-.48-4.42-.74-6.74-.74-17.1,0-30.96,13.86-30.96,30.96s13.86,30.96,30.96,30.96H209.92c8.18,0,14.82-6.63,14.82-14.82s-6.63-14.82-14.82-14.82Z"/>
  </g>
  <g>
    <g>
      <path class="cls-4" d="M298.63,287.1v32.44h-44.18v-32.44h15.63v15.59c0,3.56,2.9,6.47,6.46,6.47s6.47-2.91,6.47-6.47v-15.59h15.62Z"/>
      <polygon class="cls-2" points="254.45 287.1 270.08 287.1 270.08 293.68 254.45 291.88 254.45 287.1"/>
      <polygon class="cls-2" points="298.63 287.1 298.63 296.95 283.01 295.15 283.01 287.1 298.63 287.1"/>
      <rect class="cls-12" x="223.69" y="319.19" width="105.69" height="4.4"/>
    </g>
    <path class="cls-12" d="M426.55,133.68v145.07c0,6.61-5.37,11.98-11.98,11.98H138.51c-6.61,0-11.98-5.37-11.98-11.98V133.68c0-6.61,5.37-11.97,11.98-11.97H414.57c6.61,0,11.98,5.36,11.98,11.97Z"/>
    <rect class="cls-16" x="126.53" y="136.77" width="300.01" height="136.26"/>
    <path class="cls-4" d="M280.77,281.78c0,2.34-1.89,4.23-4.23,4.23s-4.23-1.89-4.23-4.23,1.89-4.23,4.23-4.23,4.23,1.89,4.23,4.23Z"/>
  </g>
  <g class="cls-14">
    <g id="Website">
      <g>
        <g>
          <path class="cls-12" d="M359.03,164.83l-13.59,150.87c-.33,3.64-3.72,6.6-7.58,6.6h-125.43c-3.86,0-6.72-2.96-6.4-6.6l13.59-150.87c.33-3.65,3.72-6.6,7.58-6.6h125.43c3.86,0,6.72,2.96,6.39,6.6Z"/>
          <path class="cls-20" d="M212.46,148.6h125.43c3.86,0,6.99,3.13,6.99,6.99v159.72c0,3.86-3.13,6.99-6.99,6.99h-125.43c-3.86,0-6.99-3.13-6.99-6.99V155.59c0-3.86,3.13-6.99,6.99-6.99Z"/>
          <g>
            <path class="cls-13" d="M333.3,155.71c0,1.42,1.15,2.57,2.57,2.57s2.57-1.15,2.57-2.57-1.15-2.57-2.57-2.57-2.57,1.15-2.57,2.57Z"/>
            <path class="cls-18" d="M326.13,155.71c0,1.42,1.15,2.57,2.57,2.57s2.57-1.15,2.57-2.57-1.15-2.57-2.57-2.57-2.57,1.15-2.57,2.57Z"/>
            <circle class="cls-15" cx="321.53" cy="155.71" r="2.57"/>
          </g>
        </g>
        <rect class="cls-11" x="205.47" y="240.54" width="139.41" height="42.98"/>
        <g>
          <rect class="cls-22" x="329.99" y="162.97" width="7.49" height="3.07"/>
          <rect class="cls-22" x="320.97" y="162.97" width="7.49" height="3.07"/>
          <rect class="cls-22" x="311.96" y="162.97" width="7.49" height="3.07"/>
          <rect class="cls-22" x="302.94" y="162.97" width="7.49" height="3.07"/>
        </g>
        <text class="cls-5" transform="translate(214.76 169.08)"><tspan x="0" y="0">PORFOLIO</tspan></text>
        <rect class="cls-1" x="213" y="175.63" width="124.34" height="42.05" rx="2.65" ry="2.65"/>
        <g>
          <polygon class="cls-22" points="326.73 191.81 326.73 203.72 332.68 197.76 326.73 191.81"/>
          <polygon class="cls-22" points="217.66 197.76 223.61 203.72 223.61 191.81 217.66 197.76"/>
        </g>
        <g>
          <rect class="cls-1" x="245.54" y="221.12" width="91.8" height="2.19"/>
          <rect class="cls-1" x="245.54" y="225.53" width="91.8" height="2.19"/>
          <rect class="cls-1" x="245.54" y="229.95" width="62.23" height="2.19"/>
        </g>
        <g>
          <rect class="cls-1" x="212.79" y="221.12" width="27.47" height="2.19"/>
          <rect class="cls-1" x="212.79" y="225.62" width="27.47" height="2.19"/>
          <rect class="cls-1" x="212.79" y="230.12" width="27.47" height="2.19"/>
          <rect class="cls-1" x="212.79" y="234.62" width="17.27" height="2.19"/>
        </g>
        <g>
          <rect class="cls-1" x="212.79" y="288.47" width="60.49" height="2.19"/>
          <rect class="cls-1" x="212.79" y="292.97" width="60.49" height="2.19"/>
          <rect class="cls-1" x="212.79" y="297.47" width="60.49" height="2.19"/>
          <rect class="cls-1" x="212.79" y="301.97" width="38.02" height="2.19"/>
        </g>
        <g>
          <rect class="cls-1" x="277.23" y="288.47" width="60.49" height="2.19"/>
          <rect class="cls-1" x="277.23" y="292.97" width="59.68" height="2.19"/>
          <rect class="cls-1" x="277.23" y="297.47" width="30.26" height="2.19"/>
        </g>
        <rect class="cls-1" x="212.7" y="244.19" width="27.67" height="34.82" rx="1.77" ry="1.77"/>
        <rect class="cls-1" x="245.06" y="244.19" width="27.67" height="34.82" rx="1.77" ry="1.77"/>
        <rect class="cls-1" x="277.43" y="244.19" width="27.67" height="34.82" rx="1.77" ry="1.77"/>
        <rect class="cls-1" x="309.8" y="244.19" width="27.67" height="34.82" rx="1.77" ry="1.77"/>
        <g>
          <rect class="cls-20" x="220.72" y="270.34" width="16.68" height="2.16"/>
          <rect class="cls-20" x="220.72" y="274.05" width="11.27" height="2.16"/>
        </g>
        <g>
          <rect class="cls-20" x="252.76" y="270.34" width="16.68" height="2.16"/>
          <rect class="cls-20" x="252.76" y="274.05" width="11.27" height="2.16"/>
        </g>
        <g>
          <rect class="cls-20" x="284.81" y="270.34" width="16.68" height="2.16"/>
          <rect class="cls-20" x="284.81" y="274.05" width="11.27" height="2.16"/>
        </g>
        <g>
          <rect class="cls-20" x="316.85" y="270.34" width="16.68" height="2.16"/>
          <rect class="cls-20" x="316.85" y="274.05" width="11.27" height="2.16"/>
        </g>
        <path class="cls-11" d="M344.87,308.92v6.39c0,3.86-3.13,6.99-6.99,6.99h-125.43c-3.86,0-6.99-3.13-6.99-6.99v-6.39h139.41Z"/>
        <g>
          <rect class="cls-22" x="253.81" y="311.88" width="43.13" height="2.35"/>
          <rect class="cls-22" x="265.24" y="316.32" width="20.26" height="2.35"/>
        </g>
      </g>
    </g>
  </g>
  <g id="Artwork_6" data-name="Artwork 6">
    <g>
      <g>
        <path class="cls-21" d="M191.74,321.6h-36.35v-61.85h27.02c3.64,3.64,5.68,5.68,9.32,9.32v52.52Z"/>
        <g>
          <rect class="cls-4" x="160.59" y="267.77" width="26" height="1.78"/>
          <rect class="cls-4" x="160.59" y="272.19" width="26" height="1.78"/>
          <rect class="cls-4" x="160.59" y="276.61" width="26" height="1.78"/>
          <rect class="cls-4" x="160.59" y="281.04" width="26" height="1.78"/>
          <rect class="cls-4" x="160.59" y="285.46" width="26" height="1.78"/>
          <rect class="cls-4" x="160.59" y="289.88" width="15.3" height="1.78"/>
        </g>
        <g>
          <rect class="cls-4" x="160.59" y="298.77" width="26" height="1.78"/>
          <rect class="cls-4" x="160.59" y="303.19" width="26" height="1.78"/>
          <rect class="cls-4" x="160.59" y="307.62" width="26" height="1.78"/>
          <rect class="cls-4" x="160.59" y="312.04" width="15.3" height="1.78"/>
        </g>
        <path class="cls-12" d="M191.74,269.08h-9.32v-9.32h0l9.32,9.32h0Z"/>
      </g>
      <g>
        <path class="cls-10" d="M180.04,332.31h-36.35v-61.85h27.02c3.64,3.64,5.68,5.68,9.32,9.32v52.52Z"/>
        <g>
          <rect class="cls-4" x="148.89" y="278.48" width="26" height="1.78"/>
          <rect class="cls-4" x="148.89" y="282.9" width="26" height="1.78"/>
          <rect class="cls-4" x="148.89" y="287.32" width="26" height="1.78"/>
          <rect class="cls-4" x="148.89" y="291.74" width="26" height="1.78"/>
          <rect class="cls-4" x="148.89" y="296.16" width="26" height="1.78"/>
          <rect class="cls-4" x="148.89" y="300.58" width="15.3" height="1.78"/>
        </g>
        <g>
          <rect class="cls-4" x="148.89" y="309.48" width="26" height="1.78"/>
          <rect class="cls-4" x="148.89" y="313.9" width="26" height="1.78"/>
          <rect class="cls-4" x="148.89" y="318.32" width="26" height="1.78"/>
          <rect class="cls-4" x="148.89" y="322.74" width="15.3" height="1.78"/>
        </g>
        <path class="cls-17" d="M180.04,279.79h-9.32v-9.32h0c3.64,3.64,5.68,5.68,9.32,9.32h0Z"/>
      </g>
    </g>
  </g>
  <g>
    <path class="cls-10" d="M136.68,244.87c0,5.49-1.89,10.53-5.06,14.52-4.28,5.39-10.89,8.84-18.3,8.84s-14.02-3.45-18.3-8.84c-.12-.16-.25-.32-.36-.48-2.95-3.91-4.7-8.77-4.7-14.04,0-12.91,10.46-23.36,23.36-23.36,8.61,0,16.12,4.65,20.18,11.57,2.03,3.46,3.19,7.49,3.19,11.79Z"/>
    <path class="cls-12" d="M130.95,258.31c-4.13,5.19-10.49,8.51-17.63,8.51s-13.5-3.32-17.63-8.51c1.66-7.09,7.48-12.57,14.75-13.73-2.79-1.14-4.77-3.88-4.77-7.08,0-4.22,3.42-7.65,7.65-7.65s7.65,3.43,7.65,7.65c0,3.2-1.97,5.94-4.76,7.08,7.26,1.16,13.09,6.64,14.75,13.73Z"/>
  </g>
  <g>
    <path class="cls-16" d="M448.68,110.69c0,10.54-3.64,20.22-9.71,27.87-8.22,10.34-20.9,16.96-35.13,16.96s-26.9-6.62-35.12-16.96c-.24-.3-.47-.61-.7-.92-5.65-7.5-9.01-16.83-9.01-26.95,0-24.77,20.07-44.84,44.83-44.84,16.52,0,30.95,8.93,38.72,22.22,3.89,6.64,6.12,14.37,6.12,22.63Z"/>
    <path class="cls-10" d="M438.97,138.56c-8.22,10.34-20.9,16.96-35.13,16.96s-26.9-6.62-35.12-16.96c3.31-14.12,14.91-25.04,29.38-27.35-5.56-2.27-9.5-7.72-9.5-14.11,0-8.4,6.82-15.23,15.23-15.23s15.23,6.83,15.23,15.23c0,6.39-3.92,11.84-9.49,14.11,14.47,2.32,26.08,13.23,29.38,27.35Z"/>
  </g>
  <g>
    <rect class="cls-10" x="359.49" y="260.9" width="87.9" height="54.74" rx="10.26" ry="10.26"/>
    <polygon class="cls-12" points="392.66 274.28 392.66 302.74 420.35 288.59 392.66 274.28"/>
  </g>
  <g>
    <path class="cls-21" d="M226.01,94.01c-.63-.63-.63-1.66,0-2.29,8.06-8.06,8.06-21.18,0-29.24-.63-.63-.63-1.66,0-2.29s1.66-.63,2.29,0c9.33,9.33,9.33,24.5,0,33.83-.63,.63-1.66,.63-2.29,0Z"/>
    <path class="cls-21" d="M221.26,89.26c-.63-.63-.63-1.66,0-2.29,5.44-5.44,5.44-14.3,0-19.74-.63-.63-.63-1.66,0-2.29s1.66-.63,2.29,0c6.71,6.71,6.71,17.62,0,24.33-.63,.63-1.66,.63-2.29,0Z"/>
    <path class="cls-21" d="M216.6,84.6c-.63-.63-.63-1.66,0-2.29,2.87-2.87,2.87-7.55,0-10.42-.63-.63-.63-1.66,0-2.29s1.66-.63,2.29,0c4.14,4.14,4.14,10.87,0,15.01-.63,.63-1.66,.63-2.29,0Z"/>
    <path class="cls-21" d="M214.04,79.74c-1.46,1.46-3.84,1.46-5.3,0-1.46-1.46-1.46-3.84,0-5.3,1.46-1.46,3.84-1.46,5.3,0,1.46,1.46,1.46,3.84,0,5.3Z"/>
  </g>
  <g>
    <g id="Artwork_4" data-name="Artwork 4">
      <g>
        <rect class="cls-12" x="106.52" y="146.47" width="65.93" height="59.66" rx="4.52" ry="4.52"/>
        <g>
          <circle class="cls-13" cx="165.33" cy="152.2" r="2.29"/>
          <circle class="cls-18" cx="158.53" cy="152.2" r="2.29"/>
          <circle class="cls-15" cx="151.74" cy="152.2" r="2.29"/>
        </g>
      </g>
    </g>
    <g>
      <g>
        <path class="cls-1" d="M126.72,193.5h0c-1.51,0-2.74-1.23-2.74-2.74v-17.59c0-1.51,1.23-2.74,2.74-2.74h0c1.51,0,2.74,1.23,2.74,2.74v17.59c0,1.51-1.23,2.74-2.74,2.74Z"/>
        <path class="cls-1" d="M152.26,193.5h0c-1.51,0-2.74-1.23-2.74-2.74v-17.59c0-1.51,1.23-2.74,2.74-2.74h0c1.51,0,2.74,1.23,2.74,2.74v17.59c0,1.51-1.23,2.74-2.74,2.74Z"/>
        <path class="cls-1" d="M143.75,193.5h0c-1.51,0-2.74-1.23-2.74-2.74v-12.31c0-1.51,1.23-2.74,2.74-2.74h0c1.51,0,2.74,1.23,2.74,2.74v12.31c0,1.51-1.23,2.74-2.74,2.74Z"/>
        <path class="cls-1" d="M135.23,193.5h0c-1.51,0-2.74-1.23-2.74-2.74v-26.74c0-1.51,1.23-2.74,2.74-2.74h0c1.51,0,2.74,1.23,2.74,2.74v26.74c0,1.51-1.23,2.74-2.74,2.74Z"/>
      </g>
      <path class="cls-1" d="M156.45,197.93h-33.91c-.44,0-.81-.36-.81-.81h0c0-.44,.36-.81,.81-.81h33.91c.45,0,.81,.36,.81,.81h0c0,.44-.36,.81-.81,.81Z"/>
    </g>
  </g>
  <g id="cloud-2" data-name="cloud">
    <path class="cls-10" d="M314.09,78.86c-.66,0-1.29,.12-1.88,.33-.61-3.02-2.7-5.5-5.49-6.65,.11-.85,.17-1.7,.17-2.58,0-11.14-9.03-20.18-20.18-20.18-10.09,0-18.44,7.4-19.94,17.07-.83-.18-1.68-.28-2.56-.28-6.51,0-11.79,5.28-11.79,11.79s5.28,11.79,11.79,11.79h49.88c3.12,0,5.64-2.53,5.64-5.64s-2.53-5.64-5.64-5.64Z"/>
  </g>
  <g id="Text">
    <g>
      <rect class="cls-21" x="274.9" y="98.93" width="8.71" height="1.94"/>
      <rect class="cls-21" x="284.39" y="98.93" width="6.7" height="1.94"/>
      <rect class="cls-21" x="291.81" y="98.93" width="5.32" height="1.94"/>
      <rect class="cls-21" x="279.2" y="103.43" width="17.93" height="1.94"/>
      <rect class="cls-21" x="274.9" y="103.43" width="3.29" height="1.94"/>
      <rect class="cls-21" x="284.79" y="107.93" width="8.48" height="1.94"/>
      <rect class="cls-21" x="294.07" y="107.93" width="3.06" height="1.94"/>
      <rect class="cls-21" x="274.9" y="107.93" width="9.11" height="1.94"/>
      <rect class="cls-21" x="281.29" y="112.43" width="7.39" height="1.94"/>
      <rect class="cls-21" x="274.9" y="112.43" width="5.56" height="1.94"/>
    </g>
  </g>
  <g id="Text-2" data-name="Text">
    <g>
      <rect class="cls-10" x="43.14" y="178.52" width="17.18" height="3.84"/>
      <rect class="cls-10" x="61.85" y="178.52" width="13.23" height="3.84"/>
      <rect class="cls-10" x="76.49" y="178.52" width="10.5" height="3.84"/>
      <rect class="cls-10" x="51.62" y="187.39" width="35.37" height="3.84"/>
      <rect class="cls-10" x="43.14" y="187.39" width="6.5" height="3.84"/>
      <rect class="cls-10" x="62.64" y="196.27" width="16.73" height="3.84"/>
      <rect class="cls-10" x="80.96" y="196.27" width="6.04" height="3.84"/>
      <rect class="cls-10" x="43.14" y="196.27" width="17.97" height="3.84"/>
      <rect class="cls-10" x="55.75" y="205.14" width="14.57" height="3.84"/>
      <rect class="cls-10" x="43.14" y="205.14" width="10.96" height="3.84"/>
    </g>
  </g>
  <g>
    <g id="Artwork_4-2" data-name="Artwork 4">
      <g>
        <rect class="cls-12" x="387.08" y="181.47" width="84.11" height="59.66" rx="4.52" ry="4.52"/>
        <g>
          <circle class="cls-13" cx="464.07" cy="187.2" r="2.29"/>
          <circle class="cls-18" cx="457.27" cy="187.2" r="2.29"/>
          <circle class="cls-15" cx="450.48" cy="187.2" r="2.29"/>
        </g>
      </g>
    </g>
    <g>
      <polygon class="cls-21" points="398.28 226.86 397.58 226.16 412.53 211.21 421.66 220.34 441.49 200.52 451.07 210.11 458.35 202.83 459.05 203.53 451.07 211.5 441.49 201.92 421.66 221.74 412.53 212.61 398.28 226.86"/>
      <circle class="cls-21" cx="397.91" cy="226.5" r="3.16"/>
      <circle class="cls-21" cx="412.66" cy="212.23" r="3.16"/>
      <circle class="cls-21" cx="421.72" cy="220.97" r="3.16"/>
      <circle class="cls-21" cx="441.48" cy="201.37" r="3.16"/>
      <circle class="cls-21" cx="451.06" cy="210.64" r="3.16"/>
      <circle class="cls-21" cx="458.65" cy="203.06" r="3.16"/>
    </g>
  </g>
  <text class="cls-3" transform="translate(92.42 110.38)"><tspan x="0" y="0">CMS</tspan></text>
  <g id="gear">
    <path class="cls-10" d="M401.84,183.42h0c-1.21-.38-1.38-2.02-.28-2.64h0c1.37-.78,.69-2.88-.88-2.7-1.26,.14-2.08-1.28-1.33-2.3,.94-1.27-.54-2.91-1.9-2.11h0c-1.09,.64-2.42-.33-2.15-1.56h0c.34-1.54-1.68-2.44-2.59-1.16h0c-.74,1.03-2.35,.69-2.6-.55h0c-.31-1.55-2.53-1.55-2.84,0h0c-.25,1.24-1.86,1.58-2.6,.55h0c-.92-1.29-2.94-.39-2.59,1.16h0c.27,1.24-1.06,2.21-2.15,1.56-1.36-.8-2.84,.84-1.9,2.11h0c.75,1.02-.07,2.45-1.33,2.3h0c-1.57-.18-2.25,1.92-.88,2.7h0c1.1,.62,.93,2.26-.28,2.64h0c-1.51,.47-1.27,2.67,.3,2.82h0c1.26,.12,1.77,1.69,.82,2.53-1.18,1.05-.08,2.96,1.42,2.46h0c1.2-.4,2.3,.82,1.78,1.98h0c-.65,1.44,1.13,2.74,2.3,1.67h0c.93-.86,2.44-.19,2.43,1.08h0c-.01,1.58,2.15,2.04,2.78,.59,.51-1.16,2.15-1.16,2.66,0,.63,1.45,2.79,.99,2.78-.59h0c-.01-1.27,1.49-1.94,2.43-1.08h0c1.16,1.07,2.95-.23,2.3-1.67h0c-.53-1.15,.58-2.38,1.78-1.98h0c1.5,.5,2.6-1.41,1.42-2.46h0c-.95-.84-.44-2.41,.82-2.53h0c1.57-.15,1.8-2.35,.3-2.82Zm-13.15,8.17c-4.56,0-8.26-3.7-8.26-8.26s3.7-8.26,8.26-8.26,8.26,3.7,8.26,8.26-3.7,8.26-8.26,8.26Z"/>
  </g>
  <g>
    <line class="cls-7" x1="112.7" y1="117.24" x2="112.7" y2="141.51"/>
    <path class="cls-21" d="M111.28,117.31c0-.79,.64-1.43,1.43-1.43s1.43,.64,1.43,1.43-.64,1.43-1.43,1.43-1.43-.64-1.43-1.43Z"/>
    <path class="cls-21" d="M111.28,141.43c0,.79,.64,1.43,1.43,1.43s1.43-.64,1.43-1.43-.64-1.43-1.43-1.43-1.43,.64-1.43,1.43Z"/>
  </g>
  <g>
    <polyline class="cls-7" points="173.86 96.19 201.83 96.19 246.3 140.67"/>
    <path class="cls-21" d="M173.93,97.62c-.79,0-1.43-.64-1.43-1.43s.64-1.43,1.43-1.43,1.43,.64,1.43,1.43-.64,1.43-1.43,1.43Z"/>
    <path class="cls-21" d="M245.24,141.63c.56,.56,1.46,.56,2.02,0,.56-.56,.56-1.46,0-2.02-.56-.56-1.46-.56-2.02,0-.56,.56-.56,1.46,0,2.02Z"/>
  </g>
  <g>
    <polyline class="cls-7" points="293.01 277.63 314.07 298.68 358.02 298.68"/>
    <path class="cls-21" d="M292.05,278.69c-.56-.56-.56-1.46,0-2.02s1.46-.56,2.02,0,.56,1.46,0,2.02c-.56,.56-1.46,.56-2.02,0Z"/>
    <path class="cls-21" d="M357.95,300.11c.79,0,1.43-.64,1.43-1.43s-.64-1.43-1.43-1.43-1.43,.64-1.43,1.43,.64,1.43,1.43,1.43Z"/>
  </g>
  <g>
    <polyline class="cls-7" points="111.67 271.23 111.67 293.04 125.56 306.94 140.53 306.94"/>
    <path class="cls-21" d="M110.24,271.3c0-.79,.64-1.43,1.43-1.43s1.43,.64,1.43,1.43-.64,1.43-1.43,1.43-1.43-.64-1.43-1.43Z"/>
    <path class="cls-21" d="M140.46,308.37c.79,0,1.43-.64,1.43-1.43s-.64-1.43-1.43-1.43-1.43,.64-1.43,1.43,.64,1.43,1.43,1.43Z"/>
  </g>
  <g>
    <path class="cls-7" d="M437.93,146.03l11.07,11.07c.79,.79,1.23,1.85,1.23,2.96v17.15"/>
    <path class="cls-21" d="M436.97,147.09c-.56-.56-.56-1.46,0-2.02s1.46-.56,2.02,0c.56,.56,.56,1.46,0,2.02-.56,.56-1.46,.56-2.02,0Z"/>
    <path class="cls-21" d="M448.8,177.14c0,.79,.64,1.43,1.43,1.43s1.43-.64,1.43-1.43-.64-1.43-1.43-1.43-1.43,.64-1.43,1.43Z"/>
  </g>
  <g>
    <g>
      <g id="Text-3" data-name="Text">
        <g>
          <rect class="cls-4" x="317.02" y="345.5" width="14.63" height="3.27"/>
          <rect class="cls-4" x="332.94" y="345.5" width="11.26" height="3.27"/>
          <rect class="cls-4" x="345.41" y="345.5" width="8.94" height="3.27"/>
          <rect class="cls-4" x="324.24" y="353.05" width="30.11" height="3.27"/>
          <rect class="cls-4" x="317.02" y="353.05" width="5.53" height="3.27"/>
          <rect class="cls-4" x="333.62" y="360.61" width="14.24" height="3.27"/>
          <rect class="cls-4" x="349.21" y="360.61" width="5.14" height="3.27"/>
          <rect class="cls-4" x="317.02" y="360.61" width="15.3" height="3.27"/>
          <rect class="cls-4" x="327.75" y="368.16" width="12.4" height="3.27"/>
          <rect class="cls-4" x="317.02" y="368.16" width="9.33" height="3.27"/>
        </g>
      </g>
      <g id="Text-4" data-name="Text">
        <g>
          <rect class="cls-4" x="272" y="345.5" width="14.63" height="3.27"/>
          <rect class="cls-4" x="287.93" y="345.5" width="11.26" height="3.27"/>
          <rect class="cls-4" x="300.39" y="345.5" width="8.94" height="3.27"/>
          <rect class="cls-4" x="279.22" y="353.05" width="30.11" height="3.27"/>
          <rect class="cls-4" x="272" y="353.05" width="5.53" height="3.27"/>
          <rect class="cls-4" x="288.6" y="360.61" width="14.24" height="3.27"/>
          <rect class="cls-4" x="304.19" y="360.61" width="5.14" height="3.27"/>
          <rect class="cls-4" x="272" y="360.61" width="15.3" height="3.27"/>
          <rect class="cls-4" x="282.73" y="368.16" width="12.4" height="3.27"/>
          <rect class="cls-4" x="272" y="368.16" width="9.33" height="3.27"/>
        </g>
      </g>
    </g>
    <g id="transform">
      <g>
        <rect class="cls-9" x="262.54" y="335.31" width="101.27" height="46.31"/>
        <g>
          <g>
            <rect class="cls-21" x="261.23" y="334" width="2.63" height="2.63"/>
            <rect class="cls-21" x="311.47" y="334" width="2.63" height="2.63"/>
            <rect class="cls-21" x="362.49" y="334" width="2.63" height="2.63"/>
          </g>
          <g>
            <rect class="cls-21" x="261.23" y="357.15" width="2.63" height="2.63"/>
            <rect class="cls-21" x="362.49" y="357.15" width="2.63" height="2.63"/>
          </g>
          <g>
            <rect class="cls-21" x="261.23" y="380.3" width="2.63" height="2.63"/>
            <rect class="cls-21" x="311.47" y="380.3" width="2.63" height="2.63"/>
            <rect class="cls-21" x="362.49" y="380.3" width="2.63" height="2.63"/>
          </g>
        </g>
      </g>
    </g>
  </g>
  <g id="_0" data-name="0">
    <path class="cls-21" d="M348.6,75.93h-1.12c-.62,0-1.12-.5-1.12-1.12v-1.12c0-.55-.37-1.05-.9-1.16-.72-.14-1.36,.41-1.36,1.11v1.17c0,.62-.5,1.12-1.12,1.12h-1.12c-.55,0-1.05,.37-1.16,.9-.14,.72,.41,1.36,1.11,1.36h1.17c.62,0,1.12,.5,1.12,1.12v1.12c0,.55,.37,1.05,.9,1.16,.72,.14,1.36-.41,1.36-1.11v-1.17c0-.62,.5-1.12,1.12-1.12h1.17c.7,0,1.25-.64,1.11-1.36-.11-.54-.61-.9-1.16-.9Z"/>
  </g>
  <g id="_0-2" data-name="0">
    <path class="cls-10" d="M224.33,343.94h-1.93c-1.07,0-1.93-.87-1.93-1.93v-1.93c0-.94-.63-1.81-1.55-1.99-1.24-.25-2.34,.71-2.34,1.91v2.01c0,1.07-.87,1.93-1.93,1.93h-1.93c-.94,0-1.81,.63-1.99,1.55-.25,1.24,.71,2.34,1.91,2.34h2.01c1.07,0,1.93,.87,1.93,1.93v1.93c0,.94,.63,1.81,1.55,1.99,1.24,.25,2.34-.71,2.34-1.91v-2.01c0-1.07,.87-1.93,1.93-1.93h2.01c1.2,0,2.15-1.1,1.91-2.34-.18-.92-1.05-1.55-1.99-1.55Z"/>
  </g>
  <g id="_0-3" data-name="0">
    <path class="cls-21" d="M466.32,256.88h-1.24c-.69,0-1.25-.56-1.25-1.25v-1.24c0-.61-.41-1.17-1-1.29-.8-.16-1.51,.46-1.51,1.23v1.3c0,.69-.56,1.25-1.25,1.25h-1.24c-.61,0-1.17,.41-1.29,1-.16,.8,.46,1.51,1.23,1.51h1.3c.69,0,1.25,.56,1.25,1.25v1.24c0,.61,.41,1.17,1,1.29,.8,.16,1.51-.46,1.51-1.23v-1.3c0-.69,.56-1.25,1.25-1.25h1.3c.77,0,1.39-.71,1.23-1.51-.12-.6-.68-1-1.29-1Z"/>
  </g>
  <circle class="cls-10" cx="392.52" cy="333.24" r="4.3"/>
  <circle class="cls-10" cx="393.78" cy="362.83" r="2.53"/>
  <circle class="cls-6" cx="166.17" cy="348.16" r="3.03"/>
  <circle class="cls-10" cx="206.13" cy="376.49" r="2.02"/>
  <path class="cls-6" d="M79.18,273.31c0,1.68-1.36,3.03-3.03,3.03s-3.03-1.36-3.03-3.03,1.36-3.03,3.03-3.03,3.03,1.36,3.03,3.03Z"/>
  <circle class="cls-10" cx="71.59" cy="236.89" r="2.02"/>
  <circle class="cls-10" cx="68.55" cy="155.45" r="3.03"/>
  <circle class="cls-6" cx="252.41" cy="38.87" r="2.78"/>
  <circle class="cls-10" cx="198.8" cy="47.47" r="2.78"/>
  <circle class="cls-10" cx="335.87" cy="107.66" r="2.28"/>
  <path class="cls-10" d="M347.76,315.54c0,1.54-1.25,2.78-2.78,2.78s-2.78-1.25-2.78-2.78,1.25-2.78,2.78-2.78,2.78,1.25,2.78,2.78Z"/>
  <path class="cls-10" d="M229.4,302.89c0,1.54-1.25,2.78-2.78,2.78s-2.78-1.25-2.78-2.78,1.25-2.78,2.78-2.78,2.78,1.25,2.78,2.78Z"/>
  <circle class="cls-21" cx="107" cy="330.97" r="4.05"/>
</svg>